<?xml version="1.0" standalone="no"?>
<!DOCTYPE svg PUBLIC "-//W3C//DTD SVG 20010904//EN"
 "http://www.w3.org/TR/2001/REC-SVG-20010904/DTD/svg10.dtd">
<svg version="1.0" xmlns="http://www.w3.org/2000/svg"
 width="512.000000pt" height="512.000000pt" viewBox="0 0 512.000000 512.000000"
 preserveAspectRatio="xMidYMid meet">

<g transform="translate(0.000000,512.000000) scale(0.100000,-0.100000)"
fill="#000000" stroke="none">
<path d="M1018 4890 c-98 -29 -125 -73 -183 -290 -25 -96 -51 -189 -56 -206
l-10 -32 -88 -4 c-75 -3 -95 -8 -129 -30 -22 -15 -50 -44 -63 -65 l-24 -38 -5
-530 -5 -530 -228 -840 c-125 -462 -227 -855 -227 -873 0 -65 51 -147 110
-176 14 -7 98 -32 187 -56 l161 -43 4 -141 c3 -128 5 -145 27 -179 13 -21 42
-50 64 -65 l41 -27 725 -5 726 -5 865 -233 c476 -128 912 -246 970 -262 147
-40 171 -43 221 -30 30 8 58 26 89 59 44 45 47 52 89 211 24 91 50 186 57 211
l14 47 89 4 c75 3 95 8 129 30 22 15 50 44 63 65 l24 38 3 514 3 514 229 857
c127 471 230 871 230 888 0 65 -51 146 -110 177 -14 7 -98 32 -187 55 l-161
43 -4 142 c-3 134 -4 144 -30 182 -15 22 -44 51 -65 64 l-38 24 -725 5 -725 5
-485 132 c-916 249 -1499 403 -1522 402 -13 0 -35 -4 -50 -9z m817 -396 l480
-129 -664 -3 c-365 -1 -666 -1 -668 1 -3 3 66 276 82 324 4 13 -10 16 770
-193z m2625 -1934 l0 -1600 -1900 0 -1900 0 0 1600 0 1600 1900 0 1900 0 0
-1600z m458 1106 c2 -3 -243 -926 -253 -951 -2 -5 -4 222 -4 506 l-1 516 128
-34 c70 -19 128 -36 130 -37z m-4458 -1769 l0 -514 -131 36 c-103 28 -129 38
-126 50 2 9 60 224 128 478 68 255 125 463 127 463 1 0 2 -231 2 -513z m3680
-1144 c-1 -5 -20 -80 -44 -168 -38 -139 -46 -160 -62 -157 -27 5 -1173 311
-1204 322 -15 5 254 9 643 9 367 1 667 -2 667 -6z"/>
<path d="M911 3946 c-53 -29 -50 36 -51 -1374 0 -1427 -3 -1354 55 -1380 20
-9 411 -12 1646 -12 1762 0 1661 -3 1687 55 17 38 17 2632 0 2670 -25 56 -16
55 -663 55 -647 0 -638 1 -663 -55 -23 -51 -7 -107 39 -131 23 -12 120 -14
564 -14 l535 0 0 -450 c0 -247 -2 -450 -4 -450 -2 0 -30 12 -62 28 -50 23 -72
27 -146 27 l-88 0 0 100 c0 175 -43 289 -149 396 -97 96 -220 149 -351 149
-230 0 -442 -172 -489 -398 -6 -29 -11 -109 -11 -177 l0 -125 -200 0 -200 0 0
125 c0 68 -5 148 -11 177 -47 226 -259 398 -489 398 -230 0 -442 -172 -489
-398 -6 -29 -11 -117 -11 -195 l0 -143 -30 -18 c-63 -36 -179 -136 -224 -191
l-46 -57 0 601 0 601 535 0 c393 0 541 3 560 12 29 13 55 55 55 88 0 33 -26
75 -55 88 -40 18 -1211 16 -1244 -2z m1083 -620 c62 -31 109 -80 140 -145 19
-41 21 -64 21 -221 0 -157 -2 -180 -21 -221 -31 -66 -78 -114 -142 -146 -47
-23 -70 -28 -132 -28 -124 1 -214 56 -267 163 -26 53 -28 67 -32 202 -2 86 2
166 8 196 43 189 249 286 425 200z m1400 0 c62 -31 109 -80 140 -145 19 -41
21 -64 21 -221 0 -157 -2 -180 -21 -221 -31 -66 -78 -114 -142 -146 -47 -23
-70 -28 -132 -28 -124 1 -214 56 -267 163 -26 53 -28 67 -32 202 -2 86 2 166
8 196 43 189 249 286 425 200z m525 -625 c52 -27 108 -92 121 -141 14 -54 -3
-91 -48 -104 -27 -8 -41 -4 -88 20 -72 37 -115 95 -122 162 -4 43 -1 51 19 66
31 21 71 20 118 -3z m-1446 -128 c-78 -103 -152 -253 -184 -373 -21 -79 -23
-110 -27 -452 l-4 -368 -399 0 -399 0 0 300 c0 210 -4 307 -12 325 -21 47 -52
55 -223 55 -177 0 -165 -8 -139 99 41 166 152 333 288 436 l39 30 21 -30 c11
-17 48 -57 81 -91 224 -225 602 -177 771 97 l37 59 108 0 109 0 -67 -87z m376
3 c68 -99 191 -180 309 -205 139 -29 291 5 404 92 l47 36 31 -50 c67 -104 175
-173 300 -192 l68 -11 15 -51 c9 -27 19 -69 23 -92 l7 -43 -156 0 c-100 0
-166 -4 -182 -12 -52 -24 -55 -41 -55 -368 l0 -300 -400 0 -400 0 0 300 c0
327 -3 344 -55 368 -16 8 -82 12 -180 12 -177 0 -165 -8 -139 99 30 119 97
243 186 343 35 40 128 118 140 118 4 0 21 -20 37 -44z m-1589 -956 l0 -240
-100 0 -100 0 0 240 0 240 100 0 100 0 0 -240z m1400 0 l0 -240 -100 0 -100 0
0 240 0 240 100 0 100 0 0 -240z m1400 0 l0 -240 -100 0 -100 0 0 240 0 240
100 0 100 0 0 -240z"/>
<path d="M2511 3946 c-87 -48 -50 -186 49 -186 51 0 100 49 100 99 0 75 -83
124 -149 87z"/>
</g>
</svg>
